<?xml version="1.0" encoding="UTF-8"?>
<svg width="55px" height="39px" viewBox="0 0 55 39" version="1.1" xmlns="http://www.w3.org/2000/svg" xmlns:xlink="http://www.w3.org/1999/xlink">
    <title>3x</title>
    <g id="Design" stroke="none" stroke-width="1" fill="none" fill-rule="evenodd">
        <g id="ASA35281_CAD_LP_DT" transform="translate(-1003.000000, -1548.000000)" fill="#FFFFFF" fill-rule="nonzero">
            <g id="Card-benefits" transform="translate(0.000000, 1323.000000)">
                <g id="3x" transform="translate(910.000000, 225.000000)">
                    <path d="M106.716,38.988 C114.276,38.988 120.108,34.074 120.108,27 C120.108,19.494 114.438,15.714 108.498,15.714 C108.012,15.714 107.31,15.768 106.662,15.876 L119.298,3.132 L119.298,0 L93.972,0 L93.972,3.132 L114.924,3.132 L102.072,16.146 L103.692,18.954 C104.934,18.63 106.068,18.468 107.31,18.468 C112.44,18.468 116.76,21.492 116.76,27.108 C116.76,32.238 112.494,36.018 106.77,36.018 C101.37,36.018 96.51,32.562 96.24,26.622 L93,27.378 C93.378,34.02 98.832,38.988 106.716,38.988 Z M128.046,38.286 L135.93,27.486 L143.868,38.286 L147.756,38.286 L137.874,25.164 L147.378,12.528 L143.544,12.528 L135.984,22.842 L128.424,12.528 L124.59,12.528 L133.986,25.164 L124.158,38.286 L128.046,38.286 Z"></path>
                </g>
            </g>
        </g>
    </g>
</svg>