<?xml version="1.0" encoding="utf-8"?>
<!-- Generator: Adobe Illustrator 24.1.0, SVG Export Plug-In . SVG Version: 6.00 Build 0)  -->
<svg version="1.1" id="Layer_1" xmlns="http://www.w3.org/2000/svg" xmlns:xlink="http://www.w3.org/1999/xlink" x="0px" y="0px"
	 viewBox="0 0 74 59" style="enable-background:new 0 0 74 59;" xml:space="preserve">
<style type="text/css">
	.st0{fill-rule:evenodd;clip-rule:evenodd;fill:#FFFFFF;}
</style>
<path id="path-1" class="st0" d="M73.9,42.2c-0.2,0.4-0.6,0.6-1,0.6h-0.4c-2.9-1.2-5.9-2.9-8.7-4.4l-3.9-2.2L59.6,36l-0.3-0.3
	c-0.6-0.4-1.1-1.1-1.3-1.8c-0.6-2.3,1-4,2.2-5.2l0.7-0.8l0.6-0.9c1.1-1.3,2-2.8,2.7-4.4c1.6-4.4,1.3-9.2-0.8-13.4
	C61.1,5,58.3,2.1,51.8,2.1S42.5,5,40.2,9.2s-2.3,8.8-0.7,13.4c0.8,1.9,1.9,3.7,3.3,5.3l0.6,0.7c1.2,1.4,2.9,3.2,2.3,5.3
	c-0.4,0.9-1,1.7-1.9,2.2c-3.7,1.8-6.7,3.4-7.5,3.9c-0.7,1.6-1.6,3.1-2.7,4.4l-0.7,0.9c-0.2,0.4-0.5,0.7-0.8,1
	c-1.2,1.2-1.9,2.1-1.7,3.2l0.6,0.7l0.4,0.3l3.8,2.1c2.8,1.5,5.7,3.1,8.5,4.4c0.5,0.2,0.8,0.8,0.5,1.3c0,0,0,0.1,0,0.1
	c-0.1,0.4-0.5,0.6-0.9,0.6h-0.5c-2.9-1.3-5.8-2.9-8.7-4.5c-1.3-0.7-2.6-1.5-3.9-2.1l-0.3-0.2l-0.3-0.3c-0.6-0.4-1-1-1.2-1.7
	c-0.6-2.3,0.9-4,2.1-5.3c0.3-0.2,0.5-0.4,0.7-0.7l0.7-1c1.1-1.3,1.9-2.8,2.6-4.3c1.6-4.4,1.4-9.2-0.7-13.4
	c-2.6-4.7-6.5-7.1-11.6-7.1c-4.9-0.2-9.5,2.6-11.6,7.1c-2.1,4.2-2.4,9-0.8,13.4c0.8,1.9,2,3.6,3.3,5.1l0.7,0.8
	C15,46.1,16.6,48,16,50c-0.3,1-1,1.8-1.9,2.3c-2.9,1.4-5.8,3-8.6,4.5l-3.9,2.1c-0.6,0.2-1.2,0-1.5-0.5C-0.2,57.9,0,57.3,0.5,57
	c0,0,0.1,0,0.1,0l3.8-2.1c2.9-1.5,5.8-3.1,8.7-4.5c0.4-0.2,0.7-0.6,0.8-1c0.3-0.9-0.8-2.2-1.7-3.2l-0.7-0.8
	c-1.6-1.7-2.8-3.7-3.7-5.9C6,34.4,6.3,28.6,8.7,24.4s7.5-8.2,13.5-8.2c5.7-0.1,11,3.1,13.5,8.2c2,3.9,2.5,8.4,1.5,12.7l5.6-2.9
	c0.4-0.2,0.7-0.6,0.8-1c0.3-0.9-0.9-2.1-1.8-3.2l-0.7-0.8c-1.5-1.7-2.7-3.7-3.6-5.8c-1.9-5-1.6-10.5,0.8-15.2
	c2.2-4,5.5-8.2,13.5-8.2s11.3,4.2,13.5,8.2c2.4,4.7,2.7,10.2,0.9,15.2c-0.7,1.7-1.7,3.4-2.9,4.8l-0.7,1l-0.9,0.9
	c-1.1,1.2-1.9,2.2-1.6,3.2c0.1,0.3,0.3,0.5,0.6,0.7l0.3,0.3l3.9,2.1c2.7,1.6,5.6,3.1,8.5,4.4C73.9,41.1,74.1,41.7,73.9,42.2"/>
</svg>
