  <svg width="0" height="0" class="hide">
    <symbol viewBox="0 0 55 39" xmlns="http://www.w3.org/2000/svg" id="1x">
      <path d="M13.716 38.988c7.56 0 13.392-4.914 13.392-11.988 0-7.506-5.67-11.286-11.61-11.286-.486 0-1.188.054-1.836.162L26.298 3.132V0H.972v3.132h20.952L9.072 16.146l1.62 2.808c1.242-.324 2.376-.486 3.618-.486 5.13 0 9.45 3.024 9.45 8.64 0 5.13-4.266 8.91-9.99 8.91-5.4 0-10.26-3.456-10.53-9.396L0 27.378c.378 6.642 5.832 11.61 13.716 11.61zm21.33-.702l7.884-10.8 7.938 10.8h3.888l-9.882-13.122 9.504-12.636h-3.834l-7.56 10.314-7.56-10.314H31.59l9.396 12.636-9.828 13.122h3.888z"
        ></path>
    </symbol>
    <symbol viewBox="0 0 42 39" xmlns="http://www.w3.org/2000/svg" id="3x">
      <path d="M12.852 38.286V0H9.774C8.856 4.05 5.13 7.452 0 7.884v2.808c3.672-.054 7.884-2.214 9.558-4.482v32.076h3.294zm9.234 0l7.884-10.8 7.938 10.8h3.888l-9.882-13.122 9.504-12.636h-3.834l-7.56 10.314-7.56-10.314H18.63l9.396 12.636-9.828 13.122h3.888z"
        ></path>
    </symbol>


   
   <symbol viewBox="0 0 74 59" xmlns="http://www.w3.org/2000/svg" id="companionfare">
    <path d="M73.9,42.2c-0.2,0.4-0.6,0.6-1,0.6h-0.4c-2.9-1.2-5.9-2.9-8.7-4.4l-3.9-2.2L59.6,36l-0.3-0.3
    c-0.6-0.4-1.1-1.1-1.3-1.8c-0.6-2.3,1-4,2.2-5.2l0.7-0.8l0.6-0.9c1.1-1.3,2-2.8,2.7-4.4c1.6-4.4,1.3-9.2-0.8-13.4
    C61.1,5,58.3,2.1,51.8,2.1S42.5,5,40.2,9.2s-2.3,8.8-0.7,13.4c0.8,1.9,1.9,3.7,3.3,5.3l0.6,0.7c1.2,1.4,2.9,3.2,2.3,5.3
    c-0.4,0.9-1,1.7-1.9,2.2c-3.7,1.8-6.7,3.4-7.5,3.9c-0.7,1.6-1.6,3.1-2.7,4.4l-0.7,0.9c-0.2,0.4-0.5,0.7-0.8,1
    c-1.2,1.2-1.9,2.1-1.7,3.2l0.6,0.7l0.4,0.3l3.8,2.1c2.8,1.5,5.7,3.1,8.5,4.4c0.5,0.2,0.8,0.8,0.5,1.3c0,0,0,0.1,0,0.1
    c-0.1,0.4-0.5,0.6-0.9,0.6h-0.5c-2.9-1.3-5.8-2.9-8.7-4.5c-1.3-0.7-2.6-1.5-3.9-2.1l-0.3-0.2l-0.3-0.3c-0.6-0.4-1-1-1.2-1.7
    c-0.6-2.3,0.9-4,2.1-5.3c0.3-0.2,0.5-0.4,0.7-0.7l0.7-1c1.1-1.3,1.9-2.8,2.6-4.3c1.6-4.4,1.4-9.2-0.7-13.4
    c-2.6-4.7-6.5-7.1-11.6-7.1c-4.9-0.2-9.5,2.6-11.6,7.1c-2.1,4.2-2.4,9-0.8,13.4c0.8,1.9,2,3.6,3.3,5.1l0.7,0.8
    C15,46.1,16.6,48,16,50c-0.3,1-1,1.8-1.9,2.3c-2.9,1.4-5.8,3-8.6,4.5l-3.9,2.1c-0.6,0.2-1.2,0-1.5-0.5C-0.2,57.9,0,57.3,0.5,57
    c0,0,0.1,0,0.1,0l3.8-2.1c2.9-1.5,5.8-3.1,8.7-4.5c0.4-0.2,0.7-0.6,0.8-1c0.3-0.9-0.8-2.2-1.7-3.2l-0.7-0.8
    c-1.6-1.7-2.8-3.7-3.7-5.9C6,34.4,6.3,28.6,8.7,24.4s7.5-8.2,13.5-8.2c5.7-0.1,11,3.1,13.5,8.2c2,3.9,2.5,8.4,1.5,12.7l5.6-2.9
    c0.4-0.2,0.7-0.6,0.8-1c0.3-0.9-0.9-2.1-1.8-3.2l-0.7-0.8c-1.5-1.7-2.7-3.7-3.6-5.8c-1.9-5-1.6-10.5,0.8-15.2
    c2.2-4,5.5-8.2,13.5-8.2s11.3,4.2,13.5,8.2c2.4,4.7,2.7,10.2,0.9,15.2c-0.7,1.7-1.7,3.4-2.9,4.8l-0.7,1l-0.9,0.9
    c-1.1,1.2-1.9,2.2-1.6,3.2c0.1,0.3,0.3,0.5,0.6,0.7l0.3,0.3l3.9,2.1c2.7,1.6,5.6,3.1,8.5,4.4C73.9,41.1,74.1,41.7,73.9,42.2"></path>
  </symbol>

  </svg>
